<?xml version="1.0" encoding="UTF-8"?>
<svg width="50px" height="50px" viewBox="0 0 50 50" version="1.1" xmlns="http://www.w3.org/2000/svg" xmlns:xlink="http://www.w3.org/1999/xlink">
    <title>画板</title>
    <g id="画板" stroke="none" stroke-width="1" fill="none" fill-rule="evenodd">
        <g id="vip-wangpan" transform="translate(2.000000, 6.547619)" fill="#C08B4B" fill-rule="nonzero">
            <path d="M35.7754648,9.32631109 C33.2658797,4.0645925 28.0761272,0.452380952 22.0843484,0.452380952 C14.555015,0.452380952 8.30071274,6.15257603 7.02568162,13.653077 C2.97275962,14.8409076 0,18.7413768 0,23.3720604 C0,28.8042976 4.09397745,33.2354626 9.21607521,33.452381 L35.0809921,33.452381 L35.0809921,33.4419411 C41.1704945,33.0910438 46,27.8159854 46,21.3496163 C46,15.1390252 41.5307413,10.0211455 35.7754648,9.325151 L35.7754648,9.32631109 Z M35.6881498,30.2189064 L35.693354,30.1928067 L35.6829456,30.1928067 L35.6829456,30.2339864 L9.32998955,30.2339864 L9.32998955,30.2287664 C5.85299995,30.0744876 3.07568731,27.0672112 3.07568731,23.3720604 C3.07568731,19.5806302 6.00218728,16.5107144 9.60986038,16.5107144 C9.72550944,16.5107144 9.83132831,16.5159344 9.93888195,16.5211544 C9.93367775,16.3819555 9.92847356,16.2375366 9.92847356,16.0983376 C9.92860104,15.1594571 10.0321571,14.2234652 10.2372566,13.3073997 L10.2216439,13.3073997 C11.5689558,7.76206339 16.3678143,3.66091568 22.0814572,3.66091568 C26.3604732,3.66091568 30.1300549,5.96697753 32.3164007,9.45391003 C29.1840455,10.0623252 26.499252,11.99197 24.7992106,14.664009 L27.1804252,16.6087337 C28.5682141,14.282372 30.9448027,12.6781046 33.6966726,12.4327666 C33.9383791,12.4118867 34.18529,12.3962269 34.437405,12.3962269 C35.2985335,12.3947654 36.154418,12.5306334 36.9730111,12.7987436 L36.9730111,12.7935237 C40.4598308,13.9233549 42.9954369,17.327928 42.9954369,21.3571563 C42.9954369,25.8608208 39.8220261,29.5930914 35.6869932,30.2200664 L35.6881498,30.2189064 Z" id="形状"></path>
            <polygon id="直线-4" points="37.5141396 1.45238095 40 3.8173809 5.48586042 38.452381 3 36.0873809"></polygon>
        </g>
    </g>
</svg>