<svg width="48" height="48" viewBox="0 0 48 48" fill="none" xmlns="http://www.w3.org/2000/svg"><path d="M38.4 21.278v18.493H7.543V9.6h19.863" stroke="#C08B4B" stroke-width="3" stroke-miterlimit="10" stroke-linecap="square"/><path d="M7.543 39.832l8.327-10.344 6.591 6.144 9.948-13.499 6.094 9v8.699H7.543zm10.744-16.707c2.35 0 4.256-1.863 4.256-4.16 0-2.298-1.905-4.16-4.256-4.16-2.35 0-4.255 1.862-4.255 4.16 0 2.297 1.905 4.16 4.255 4.16z" fill="#C08B4B"/><path d="M34.286 8.229h7.542m-3.428 0v6.857m-4.8-6.857V9.6m9.6-1.371V9.6m-6.171 6.171h2.743" stroke="#C08B4B" stroke-width="3" stroke-miterlimit="10" stroke-linecap="square"/></svg>